<?xml version="1.0" encoding="UTF-8" standalone="no"?>
<!DOCTYPE svg PUBLIC "-//W3C//DTD SVG 1.1//EN"
 "http://www.w3.org/Graphics/SVG/1.1/DTD/svg11.dtd">
<!-- Generated by graphviz version 15.1.0 (20260618.0150)
 -->
<!-- Title: G Pages: 1 -->
<svg width="1064pt" height="257pt"
 viewBox="0.00 0.00 1064.00 257.00" xmlns="http://www.w3.org/2000/svg" xmlns:xlink="http://www.w3.org/1999/xlink">
<g id="graph0" class="graph" transform="scale(1 1) rotate(0) translate(4 252.74)">
<title>G</title><style>.edge>path:hover{stroke-width:8}</style>
<polygon fill="white" stroke="none" points="-4,4 -4,-252.74 1059.68,-252.74 1059.68,4 -4,4"/>
<!-- fastapi__compat -->
<g id="node1" class="node">
<title>fastapi__compat</title><style>.edge>path:hover{stroke-width:8}</style>
<polygon fill="blue" stroke="black" points="620.63,-155 566.63,-155 566.63,-119 620.63,-119 620.63,-155"/>
<text xml:space="preserve" text-anchor="middle" x="593.63" y="-133.5" font-family="Helvetica,sans-Serif" font-size="10.00" fill="white">_compat</text>
</g>
<!-- fastapi__compat_shared -->
<g id="node2" class="node">
<title>fastapi__compat_shared</title><style>.edge>path:hover{stroke-width:8}</style>
<ellipse fill="#c24747" stroke="black" cx="376.06" cy="-160" rx="51.56" ry="18"/>
<text xml:space="preserve" text-anchor="middle" x="376.06" y="-156.5" font-family="Helvetica,sans-Serif" font-size="10.00" fill="#ffffff">_compat.shared</text>
</g>
<!-- fastapi__compat&#45;&gt;fastapi__compat_shared -->
<g id="edge8" class="edge">
<title>fastapi__compat&#45;&gt;fastapi__compat_shared</title><style>.edge>path:hover{stroke-width:8}</style>
<path fill="none" stroke="black" d="M566.19,-142.84C555.24,-145.07 542.37,-147.45 530.63,-149 500.59,-152.97 467.03,-155.58 438.97,-157.26"/>
<polygon fill="blue" stroke="black" points="439,-153.75 429.22,-157.81 439.4,-160.74 439,-153.75"/>
</g>
<!-- fastapi__compat_v2 -->
<g id="node3" class="node">
<title>fastapi__compat_v2</title><style>.edge>path:hover{stroke-width:8}</style>
<polygon fill="blue" stroke="black" points="530.63,-140 463.63,-140 463.63,-104 530.63,-104 530.63,-140"/>
<text xml:space="preserve" text-anchor="middle" x="497.13" y="-118.5" font-family="Helvetica,sans-Serif" font-size="10.00" fill="white">_compat.v2</text>
</g>
<!-- fastapi__compat&#45;&gt;fastapi__compat_v2 -->
<g id="edge10" class="edge">
<title>fastapi__compat&#45;&gt;fastapi__compat_v2</title><style>.edge>path:hover{stroke-width:8}</style>
<path fill="none" stroke="black" d="M566.31,-132.82C558.88,-131.64 550.59,-130.33 542.42,-129.03"/>
<polygon fill="blue" stroke="black" points="542.98,-125.57 532.55,-127.46 541.88,-132.49 542.98,-125.57"/>
</g>
<!-- fastapi__compat_v2&#45;&gt;fastapi__compat_shared -->
<g id="edge9" class="edge">
<title>fastapi__compat_v2&#45;&gt;fastapi__compat_shared</title><style>.edge>path:hover{stroke-width:8}</style>
<path fill="none" stroke="black" d="M463.28,-132.48C451.67,-136.19 438.36,-140.44 425.73,-144.47"/>
<polygon fill="blue" stroke="black" points="424.76,-141.1 416.3,-147.48 426.89,-147.77 424.76,-141.1"/>
</g>
<!-- fastapi_params -->
<g id="node8" class="node">
<title>fastapi_params</title><style>.edge>path:hover{stroke-width:8}</style>
<polygon fill="blue" stroke="black" points="288.5,-224 234.5,-224 234.5,-188 288.5,-188 288.5,-224"/>
<text xml:space="preserve" text-anchor="middle" x="261.5" y="-202.5" font-family="Helvetica,sans-Serif" font-size="10.00" fill="white">params</text>
</g>
<!-- fastapi__compat_v2&#45;&gt;fastapi_params -->
<g id="edge19" class="edge">
<title>fastapi__compat_v2&#45;&gt;fastapi_params</title><style>.edge>path:hover{stroke-width:8}</style>
<path fill="none" stroke="black" d="M463.18,-116.8C427.1,-112.71 368.53,-110.89 324.5,-133 304.93,-142.82 289.09,-161.85 278.32,-178.02"/>
<polygon fill="blue" stroke="black" points="275.46,-176 273.09,-186.33 281.38,-179.73 275.46,-176"/>
</g>
<!-- fastapi_datastructures -->
<g id="node4" class="node">
<title>fastapi_datastructures</title><style>.edge>path:hover{stroke-width:8}</style>
<polygon fill="blue" stroke="black" points="198.5,-94 120.25,-94 120.25,-58 198.5,-58 198.5,-94"/>
<text xml:space="preserve" text-anchor="middle" x="159.38" y="-72.5" font-family="Helvetica,sans-Serif" font-size="10.00" fill="white">datastructures</text>
</g>
<!-- fastapi_datastructures&#45;&gt;fastapi__compat -->
<g id="edge1" class="edge">
<title>fastapi_datastructures&#45;&gt;fastapi__compat</title><style>.edge>path:hover{stroke-width:8}</style>
<path fill="none" stroke="black" d="M377.06,-76C445.42,-83.56 466.25,-70.82 530.63,-95 545.23,-100.49 559.77,-110.06 571.09,-118.68"/>
<path fill="none" stroke="black" d="M198.87,-73.83C239.31,-72.03 305.07,-70.42 363.8,-75.03"/>
<polygon fill="blue" stroke="black" points="363.29,-78.5 373.56,-75.87 363.89,-71.53 363.29,-78.5"/>
</g>
<!-- fastapi_datastructures&#45;&gt;fastapi__compat_v2 -->
<g id="edge11" class="edge">
<title>fastapi_datastructures&#45;&gt;fastapi__compat_v2</title><style>.edge>path:hover{stroke-width:8}</style>
<path fill="none" stroke="black" d="M377.06,-76C407.62,-78.88 439.96,-92.1 463.22,-103.64"/>
</g>
<!-- fastapi_dependencies_utils -->
<g id="node5" class="node">
<title>fastapi_dependencies_utils</title><style>.edge>path:hover{stroke-width:8}</style>
<polygon fill="blue" stroke="black" points="928.68,-207 849.68,-207 849.68,-171 928.68,-171 928.68,-207"/>
<text xml:space="preserve" text-anchor="middle" x="889.18" y="-191.5" font-family="Helvetica,sans-Serif" font-size="10.00" fill="white">dependencies.</text>
<text xml:space="preserve" text-anchor="middle" x="889.18" y="-179.5" font-family="Helvetica,sans-Serif" font-size="10.00" fill="white">utils</text>
</g>
<!-- fastapi_dependencies_utils&#45;&gt;fastapi__compat -->
<g id="edge2" class="edge">
<title>fastapi_dependencies_utils&#45;&gt;fastapi__compat</title><style>.edge>path:hover{stroke-width:8}</style>
<path fill="none" stroke="black" d="M779.15,-152C739.23,-138.92 726.45,-156.04 684.63,-152"/>
</g>
<!-- fastapi_dependencies_utils&#45;&gt;fastapi_params -->
<g id="edge20" class="edge">
<title>fastapi_dependencies_utils&#45;&gt;fastapi_params</title><style>.edge>path:hover{stroke-width:8}</style>
<path fill="none" stroke="black" d="M864.32,-207.49C843.65,-221.92 812.25,-240.14 781.15,-244"/>
<path fill="none" stroke="black" d="M779.15,-244C697.77,-254.11 676.64,-244 594.63,-244 594.63,-244 594.63,-244 496.13,-244 426.05,-244 345.65,-227.13 299.79,-215.88"/>
<polygon fill="blue" stroke="black" points="300.92,-212.55 290.37,-213.52 299.22,-219.34 300.92,-212.55"/>
</g>
<!-- fastapi_utils -->
<g id="node10" class="node">
<title>fastapi_utils</title><style>.edge>path:hover{stroke-width:8}</style>
<polygon fill="blue" stroke="black" points="710.63,-109 656.63,-109 656.63,-73 710.63,-73 710.63,-109"/>
<text xml:space="preserve" text-anchor="middle" x="683.63" y="-87.5" font-family="Helvetica,sans-Serif" font-size="10.00" fill="white">utils</text>
</g>
<!-- fastapi_dependencies_utils&#45;&gt;fastapi_utils -->
<g id="edge23" class="edge">
<title>fastapi_dependencies_utils&#45;&gt;fastapi_utils</title><style>.edge>path:hover{stroke-width:8}</style>
<path fill="none" stroke="black" d="M779.15,-152C755.6,-144.28 732.18,-129.23 714.54,-116.01"/>
<polygon fill="blue" stroke="black" points="717.12,-113.58 707.07,-110.24 712.84,-119.12 717.12,-113.58"/>
<path fill="none" stroke="black" d="M849.39,-175.25C829.11,-168.15 803.85,-159.44 781.15,-152"/>
</g>
<!-- fastapi_encoders -->
<g id="node6" class="node">
<title>fastapi_encoders</title><style>.edge>path:hover{stroke-width:8}</style>
<ellipse fill="#b34c4c" stroke="black" cx="780.15" cy="-198" rx="33.52" ry="18"/>
<text xml:space="preserve" text-anchor="middle" x="780.15" y="-194.5" font-family="Helvetica,sans-Serif" font-size="10.00" fill="#ffffff">encoders</text>
</g>
<!-- fastapi_encoders&#45;&gt;fastapi__compat -->
<g id="edge3" class="edge">
<title>fastapi_encoders&#45;&gt;fastapi__compat</title><style>.edge>path:hover{stroke-width:8}</style>
<path fill="none" stroke="black" d="M759.77,-183.44C741.5,-171.01 712.79,-154.72 684.63,-152"/>
</g>
<!-- fastapi_openapi_models -->
<g id="node7" class="node">
<title>fastapi_openapi_models</title><style>.edge>path:hover{stroke-width:8}</style>
<polygon fill="blue" stroke="black" points="84.25,-199 0,-199 0,-163 84.25,-163 84.25,-199"/>
<text xml:space="preserve" text-anchor="middle" x="42.12" y="-177.5" font-family="Helvetica,sans-Serif" font-size="10.00" fill="white">openapi.models</text>
</g>
<!-- fastapi_openapi_models&#45;&gt;fastapi__compat -->
<g id="edge4" class="edge">
<title>fastapi_openapi_models&#45;&gt;fastapi__compat</title><style>.edge>path:hover{stroke-width:8}</style>
<path fill="none" stroke="black" d="M377.06,-206C448.04,-210.58 526.41,-174.19 566.24,-152.48"/>
<path fill="none" stroke="black" d="M84.66,-176.67C133.69,-172.48 217.54,-168.19 288.5,-179 324.3,-184.45 333.27,-198.68 363.81,-204.41"/>
<polygon fill="blue" stroke="black" points="363.17,-207.85 373.57,-205.79 364.15,-200.92 363.17,-207.85"/>
</g>
<!-- fastapi_params&#45;&gt;fastapi__compat -->
<g id="edge5" class="edge">
<title>fastapi_params&#45;&gt;fastapi__compat</title><style>.edge>path:hover{stroke-width:8}</style>
<path fill="none" stroke="black" d="M288.96,-204.53C308.96,-203.72 337.4,-203.22 363.87,-205.06"/>
<polygon fill="blue" stroke="black" points="363.3,-208.53 373.56,-205.87 363.88,-201.55 363.3,-208.53"/>
</g>
<!-- fastapi_params&#45;&gt;fastapi_datastructures -->
<g id="edge13" class="edge">
<title>fastapi_params&#45;&gt;fastapi_datastructures</title><style>.edge>path:hover{stroke-width:8}</style>
<path fill="none" stroke="black" d="M246.37,-187.65C229.45,-165.68 200.95,-128.68 181.43,-103.34"/>
<polygon fill="blue" stroke="black" points="184.23,-101.24 175.36,-95.46 178.69,-105.51 184.23,-101.24"/>
</g>
<!-- fastapi_params&#45;&gt;fastapi_openapi_models -->
<g id="edge18" class="edge">
<title>fastapi_params&#45;&gt;fastapi_openapi_models</title><style>.edge>path:hover{stroke-width:8}</style>
<path fill="none" stroke="black" d="M234.28,-202.98C200.18,-199.06 139.79,-192.12 96,-187.08"/>
<polygon fill="blue" stroke="black" points="96.53,-183.62 86.19,-185.95 95.73,-190.57 96.53,-183.62"/>
</g>
<!-- fastapi_routing -->
<g id="node9" class="node">
<title>fastapi_routing</title><style>.edge>path:hover{stroke-width:8}</style>
<polygon fill="blue" stroke="black" points="1055.68,-94 1001.68,-94 1001.68,-58 1055.68,-58 1055.68,-94"/>
<text xml:space="preserve" text-anchor="middle" x="1028.68" y="-72.5" font-family="Helvetica,sans-Serif" font-size="10.00" fill="white">routing</text>
</g>
<!-- fastapi_routing&#45;&gt;fastapi__compat -->
<g id="edge6" class="edge">
<title>fastapi_routing&#45;&gt;fastapi__compat</title><style>.edge>path:hover{stroke-width:8}</style>
<path fill="none" stroke="black" d="M682.63,-152C666.03,-150.4 647.85,-147.49 632.34,-144.66"/>
<polygon fill="blue" stroke="black" points="633.03,-141.23 622.55,-142.82 631.73,-148.11 633.03,-141.23"/>
<path fill="none" stroke="black" d="M964.68,-189C947.2,-198.72 946.9,-170.24 928.68,-162 881.1,-140.49 865.61,-143.36 813.68,-138 784.04,-134.94 776.25,-134.7 746.63,-138 718.55,-141.13 712.75,-154.72 684.63,-152"/>
<path fill="none" stroke="black" d="M1023.51,-94.23C1016.49,-120.27 999.63,-167.33 965.68,-189"/>
</g>
<!-- fastapi_routing&#45;&gt;fastapi_datastructures -->
<g id="edge14" class="edge">
<title>fastapi_routing&#45;&gt;fastapi_datastructures</title><style>.edge>path:hover{stroke-width:8}</style>
<path fill="none" stroke="black" d="M1009,-57.6C984.1,-35.11 937.64,0 890.18,0 890.18,0 890.18,0 682.63,0 598.91,0 581.46,-29.87 498.13,-38"/>
<path fill="none" stroke="black" d="M496.13,-38C394.06,-43.97 275.35,-59.43 209.97,-68.68"/>
<polygon fill="blue" stroke="black" points="209.68,-65.19 200.28,-70.07 210.67,-72.12 209.68,-65.19"/>
</g>
<!-- fastapi_routing&#45;&gt;fastapi_dependencies_utils -->
<g id="edge16" class="edge">
<title>fastapi_routing&#45;&gt;fastapi_dependencies_utils</title><style>.edge>path:hover{stroke-width:8}</style>
<path fill="none" stroke="black" d="M964.68,-189C957.37,-193.06 949.01,-195.07 940.59,-195.81"/>
<polygon fill="blue" stroke="black" points="940.58,-192.31 930.67,-196.06 940.75,-199.31 940.58,-192.31"/>
</g>
<!-- fastapi_routing&#45;&gt;fastapi_encoders -->
<g id="edge17" class="edge">
<title>fastapi_routing&#45;&gt;fastapi_encoders</title><style>.edge>path:hover{stroke-width:8}</style>
<path fill="none" stroke="black" d="M964.68,-189C928.71,-209 930.44,-235.45 890.18,-244"/>
<path fill="none" stroke="black" d="M888.18,-244C859.66,-250.06 829.32,-234.7 808.25,-220.13"/>
<polygon fill="blue" stroke="black" points="810.35,-217.33 800.21,-214.25 806.22,-222.98 810.35,-217.33"/>
</g>
<!-- fastapi_routing&#45;&gt;fastapi_params -->
<g id="edge21" class="edge">
<title>fastapi_routing&#45;&gt;fastapi_params</title><style>.edge>path:hover{stroke-width:8}</style>
<path fill="none" stroke="black" d="M888.18,-244C841.65,-253.88 828.25,-237.34 781.15,-244"/>
</g>
<!-- fastapi_routing&#45;&gt;fastapi_utils -->
<g id="edge24" class="edge">
<title>fastapi_routing&#45;&gt;fastapi_utils</title><style>.edge>path:hover{stroke-width:8}</style>
<path fill="none" stroke="black" d="M990,-77.65C924.1,-80.53 788.65,-86.45 722.57,-89.34"/>
<polygon fill="blue" stroke="black" points="989.98,-81.15 999.82,-77.22 989.67,-74.16 989.98,-81.15"/>
<polygon fill="blue" stroke="black" points="722.42,-85.84 712.58,-89.78 722.72,-92.84 722.42,-85.84"/>
</g>
<!-- fastapi_utils&#45;&gt;fastapi__compat -->
<g id="edge7" class="edge">
<title>fastapi_utils&#45;&gt;fastapi__compat</title><style>.edge>path:hover{stroke-width:8}</style>
<path fill="none" stroke="black" d="M656.23,-104.8C648.31,-108.94 639.48,-113.56 631.04,-117.97"/>
<polygon fill="blue" stroke="black" points="629.6,-114.77 622.36,-122.51 632.84,-120.98 629.6,-114.77"/>
</g>
<!-- fastapi_utils&#45;&gt;fastapi__compat_v2 -->
<g id="edge12" class="edge">
<title>fastapi_utils&#45;&gt;fastapi__compat_v2</title><style>.edge>path:hover{stroke-width:8}</style>
<path fill="none" stroke="black" d="M592.63,-38C557.81,-35.88 529.81,-68.76 513.57,-94"/>
<polygon fill="blue" stroke="black" points="510.76,-91.9 508.53,-102.26 516.73,-95.55 510.76,-91.9"/>
</g>
<!-- fastapi_utils&#45;&gt;fastapi_datastructures -->
<g id="edge15" class="edge">
<title>fastapi_utils&#45;&gt;fastapi_datastructures</title><style>.edge>path:hover{stroke-width:8}</style>
<path fill="none" stroke="black" d="M664.26,-72.68C647.64,-58.02 621.69,-39.65 594.63,-38"/>
<path fill="none" stroke="black" d="M592.63,-38C550.71,-35.45 539.93,-33.92 498.13,-38"/>
</g>
</g>
</svg>
